<svg width="10" height="18" viewBox="0 0 10 18" fill="none" xmlns="http://www.w3.org/2000/svg">
<path fill-rule="evenodd" clip-rule="evenodd" d="M0.792893 12.7929C1.18342 12.4024 1.81658 12.4024 2.20711 12.7929L4 14.5858L4 3.41421L2.20711 5.20711C1.81658 5.59763 1.18342 5.59763 0.792893 5.20711C0.402369 4.81658 0.402369 4.18342 0.792893 3.79289L4.29289 0.292892C4.68342 -0.0976315 5.31658 -0.0976315 5.70711 0.292892L9.20711 3.79289C9.59763 4.18342 9.59763 4.81658 9.20711 5.20711C8.81658 5.59763 8.18342 5.59763 7.79289 5.20711L6 3.41421L6 14.5858L7.79289 12.7929C8.18342 12.4024 8.81658 12.4024 9.20711 12.7929C9.59763 13.1834 9.59763 13.8166 9.20711 14.2071L5.70711 17.7071C5.31658 18.0976 4.68342 18.0976 4.29289 17.7071L0.792893 14.2071C0.402369 13.8166 0.402369 13.1834 0.792893 12.7929Z" fill="#1E212C"/>
</svg>
