<svg width="20" height="18" viewBox="0 0 20 18" fill="none" xmlns="http://www.w3.org/2000/svg">
<path fill-rule="evenodd" clip-rule="evenodd" d="M14.2929 0.292893C14.6834 -0.0976311 15.3166 -0.0976311 15.7071 0.292893L19.2071 3.79289C19.5976 4.18342 19.5976 4.81658 19.2071 5.20711L15.7071 8.70711C15.3166 9.09763 14.6834 9.09763 14.2929 8.70711C13.9024 8.31658 13.9024 7.68342 14.2929 7.29289L16.0858 5.5H2.5C1.94772 5.5 1.5 5.05228 1.5 4.5C1.5 3.94772 1.94772 3.5 2.5 3.5H16.0858L14.2929 1.70711C13.9024 1.31658 13.9024 0.683417 14.2929 0.292893ZM5.70711 9.29289C6.09763 9.68342 6.09763 10.3166 5.70711 10.7071L3.91421 12.5H17.5C18.0523 12.5 18.5 12.9477 18.5 13.5C18.5 14.0523 18.0523 14.5 17.5 14.5H3.91421L5.70711 16.2929C6.09763 16.6834 6.09763 17.3166 5.70711 17.7071C5.31658 18.0976 4.68342 18.0976 4.29289 17.7071L0.792893 14.2071C0.402369 13.8166 0.402369 13.1834 0.792893 12.7929L4.29289 9.29289C4.68342 8.90237 5.31658 8.90237 5.70711 9.29289Z" fill="#1E212C"/>
</svg>
