<svg width="22" height="22" viewBox="0 0 22 22" fill="none" xmlns="http://www.w3.org/2000/svg">
<path fill-rule="evenodd" clip-rule="evenodd" d="M6.30541 6.30535C6.71249 5.89827 7.3725 5.89827 7.77958 6.30535L11.0001 9.52587L14.2206 6.30536C14.6277 5.89828 15.2877 5.89828 15.6948 6.30536C16.1019 6.71245 16.1019 7.37246 15.6948 7.77954L12.4743 11L15.6948 14.2205C16.1019 14.6276 16.1019 15.2876 15.6948 15.6947C15.2877 16.1018 14.6277 16.1018 14.2206 15.6947L11.0001 12.4742L7.77958 15.6947C7.3725 16.1018 6.71249 16.1018 6.30541 15.6947C5.89833 15.2877 5.89833 14.6276 6.30541 14.2206L9.52592 11L6.30541 7.77953C5.89833 7.37245 5.89833 6.71244 6.30541 6.30535Z" fill="#1E212C"/>
<path fill-rule="evenodd" clip-rule="evenodd" d="M11 2C6.02944 2 2 6.02944 2 11C2 15.9706 6.02944 20 11 20C15.9706 20 20 15.9706 20 11C20 6.02944 15.9706 2 11 2ZM0 11C0 4.92487 4.92487 0 11 0C17.0751 0 22 4.92487 22 11C22 17.0751 17.0751 22 11 22C4.92487 22 0 17.0751 0 11Z" fill="#1E212C"/>
</svg>
