<svg width="20" height="20" viewBox="0 0 20 20" fill="none" xmlns="http://www.w3.org/2000/svg">
<path d="M17.4386 3.32427L17.2982 3.17133C15.4721 1.221 12.8762 0 10 0C8.8556 0 7.75573 0.1938 6.7308 0.549333L6.62667 0.586067C3.2792 1.78927 0.753533 4.72993 0.142667 8.31527C0.141933 8.31867 0.140867 8.32193 0.1402 8.32533C0.138 8.33673 0.137133 8.34807 0.135333 8.35947C0.0468 8.89347 0 9.44133 0 10C0 12.384 0.839067 14.5755 2.23673 16.2957C2.2374 16.2967 2.35313 16.4363 2.35313 16.4363C4.189 18.6139 6.93547 20 10 20C11.1581 20 12.2705 19.8015 13.3059 19.4377C13.3331 19.4293 13.3599 19.42 13.3861 19.4094C16.6707 18.2237 19.1616 15.3645 19.8246 11.8662C19.8263 11.8577 19.8281 11.8492 19.8295 11.8407C19.941 11.2438 20 10.6287 20 10C20 7.43667 19.0301 5.09587 17.4386 3.32427ZM10 2C12.0567 2 13.9344 2.78033 15.3531 4.0602C14.3596 5.42133 12.9705 6.3164 11.4489 6.89373C11.1953 6.30147 10.9419 5.76467 10.6991 5.2862C9.995 3.8994 9.3038 2.8368 8.76473 2.0954C9.16753 2.03273 9.57993 2 10 2ZM6.71573 2.7056C7.3122 3.45107 8.44373 5.034 9.51227 7.4576C6.7066 8.05947 3.8296 7.85993 2.3424 7.6834C3.0152 5.464 4.62793 3.64933 6.71573 2.7056ZM2 10C2 9.88633 2.003 9.7734 2.00767 9.66087C2.80467 9.76053 3.98647 9.86873 5.3644 9.86873C6.0316 9.86873 6.74493 9.84333 7.48213 9.77933C8.46473 9.694 9.39107 9.54653 10.2597 9.34073C10.4507 9.8784 10.6344 10.446 10.8064 11.0447C9.90527 11.3069 8.9746 11.6343 8.01527 12.0277C5.94693 12.8757 4.26047 13.8249 3.319 14.3952C2.4858 13.1329 2 11.6222 2 10ZM10 18C7.9418 18 6.0628 17.2185 4.64367 15.9369C5.9782 15.1528 8.4836 13.8162 11.2959 12.9896C11.6094 14.4324 11.8469 16.0214 11.9669 17.7551C11.3375 17.9148 10.6785 18 10 18ZM13.9119 16.9761C13.7714 15.3637 13.5341 13.8772 13.2367 12.5201C14.7091 12.2456 16.2101 12.1639 17.6279 12.4129C17.01 14.3617 15.6645 15.9894 13.9119 16.9761ZM17.9874 10.4447C16.4 10.1623 14.6494 10.2058 12.7484 10.5728C12.566 9.93067 12.3721 9.3254 12.1724 8.75607C14.0494 8.03793 15.5683 6.98027 16.6829 5.60787C17.515 6.86947 18 8.37907 18 10C18 10.1492 17.9956 10.2974 17.9874 10.4447Z" fill="#1E212C"/>
</svg>
