<svg width="129" height="95" viewBox="0 0 129 95" fill="none" xmlns="http://www.w3.org/2000/svg">
<g clip-path="url(#clip0_2327_2239)">
<path d="M3.68071 27.92C3.68071 28.9736 2.89198 29.7638 1.84035 29.7638C0.788723 29.7638 0 28.9736 0 27.92C0 26.8664 0.788723 26.0762 1.84035 26.0762C2.89198 26.0762 3.68071 26.9542 3.68071 27.92Z" fill="white"/>
<path d="M19.3675 27.92C19.3675 28.9736 18.5788 29.7638 17.5271 29.7638C16.4755 29.7638 15.6868 28.9736 15.6868 27.92C15.6868 26.8664 16.4755 26.0762 17.5271 26.0762C18.4911 26.0762 19.3675 26.9542 19.3675 27.92Z" fill="white"/>
<path d="M34.9664 27.92C34.9664 28.9736 34.1776 29.7638 33.126 29.7638C32.0744 29.7638 31.2856 28.9736 31.2856 27.92C31.2856 26.8664 32.0744 26.0762 33.126 26.0762C34.1776 26.0762 34.9664 26.9542 34.9664 27.92Z" fill="white"/>
<path d="M50.6536 27.92C50.6536 28.9736 49.8649 29.7638 48.8133 29.7638C47.7616 29.7638 46.9729 28.9736 46.9729 27.92C46.9729 26.8664 47.7616 26.0762 48.8133 26.0762C49.8649 26.0762 50.6536 26.9542 50.6536 27.92Z" fill="white"/>
<path d="M66.3404 27.92C66.3404 28.9736 65.5516 29.7638 64.5 29.7638C63.4484 29.7638 62.6597 28.9736 62.6597 27.92C62.6597 26.8664 63.4484 26.0762 64.5 26.0762C65.464 26.0762 66.3404 26.9542 66.3404 27.92Z" fill="white"/>
<path d="M82.0271 27.92C82.0271 28.9736 81.2384 29.7638 80.1868 29.7638C79.1352 29.7638 78.3464 28.9736 78.3464 27.92C78.3464 26.8664 79.1352 26.0762 80.1868 26.0762C81.2384 26.0762 82.0271 26.9542 82.0271 27.92Z" fill="white"/>
<path d="M97.626 27.92C97.626 28.9736 96.8373 29.7638 95.7857 29.7638C94.734 29.7638 93.9453 28.9736 93.9453 27.92C93.9453 26.8664 94.734 26.0762 95.7857 26.0762C96.8373 26.0762 97.626 26.9542 97.626 27.92Z" fill="white"/>
<path d="M113.313 27.92C113.313 28.9736 112.524 29.7638 111.472 29.7638C110.421 29.7638 109.632 28.9736 109.632 27.92C109.632 26.8664 110.421 26.0762 111.472 26.0762C112.524 26.0762 113.313 26.9542 113.313 27.92Z" fill="white"/>
<path d="M129 27.92C129 28.9736 128.211 29.7638 127.16 29.7638C126.108 29.7638 125.319 28.9736 125.319 27.92C125.319 26.8664 126.108 26.0762 127.16 26.0762C128.124 26.0762 129 26.9542 129 27.92Z" fill="white"/>
<path d="M3.68071 41.002C3.68071 42.0556 2.89198 42.8458 1.84035 42.8458C0.788723 42.8458 0 42.0556 0 41.002C0 39.9484 0.788723 39.1582 1.84035 39.1582C2.89198 39.1582 3.68071 39.9484 3.68071 41.002Z" fill="white"/>
<path d="M19.3675 41.002C19.3675 42.0556 18.5788 42.8458 17.5271 42.8458C16.4755 42.8458 15.6868 42.0556 15.6868 41.002C15.6868 39.9484 16.4755 39.1582 17.5271 39.1582C18.4911 39.1582 19.3675 39.9484 19.3675 41.002Z" fill="white"/>
<path d="M34.9664 41.002C34.9664 42.0556 34.1776 42.8458 33.126 42.8458C32.0744 42.8458 31.2856 42.0556 31.2856 41.002C31.2856 39.9484 32.0744 39.1582 33.126 39.1582C34.1776 39.1582 34.9664 39.9484 34.9664 41.002Z" fill="white"/>
<path d="M50.6536 41.002C50.6536 42.0556 49.8649 42.8458 48.8133 42.8458C47.7616 42.8458 46.9729 42.0556 46.9729 41.002C46.9729 39.9484 47.7616 39.1582 48.8133 39.1582C49.8649 39.1582 50.6536 39.9484 50.6536 41.002Z" fill="white"/>
<path d="M66.3404 41.002C66.3404 42.0556 65.5516 42.8458 64.5 42.8458C63.4484 42.8458 62.6597 42.0556 62.6597 41.002C62.6597 39.9484 63.4484 39.1582 64.5 39.1582C65.464 39.1582 66.3404 39.9484 66.3404 41.002Z" fill="white"/>
<path d="M82.0271 41.002C82.0271 42.0556 81.2384 42.8458 80.1868 42.8458C79.1352 42.8458 78.3464 42.0556 78.3464 41.002C78.3464 39.9484 79.1352 39.1582 80.1868 39.1582C81.2384 39.1582 82.0271 39.9484 82.0271 41.002Z" fill="white"/>
<path d="M97.626 41.002C97.626 42.0556 96.8373 42.8458 95.7857 42.8458C94.734 42.8458 93.9453 42.0556 93.9453 41.002C93.9453 39.9484 94.734 39.1582 95.7857 39.1582C96.8373 39.1582 97.626 39.9484 97.626 41.002Z" fill="white"/>
<path d="M113.313 41.002C113.313 42.0556 112.524 42.8458 111.472 42.8458C110.421 42.8458 109.632 42.0556 109.632 41.002C109.632 39.9484 110.421 39.1582 111.472 39.1582C112.524 39.1582 113.313 39.9484 113.313 41.002Z" fill="white"/>
<path d="M129 41.002C129 42.0556 128.211 42.8458 127.16 42.8458C126.108 42.8458 125.319 42.0556 125.319 41.002C125.319 39.9484 126.108 39.1582 127.16 39.1582C128.124 39.1582 129 39.9484 129 41.002Z" fill="white"/>
<path d="M3.68071 1.84381C3.68071 2.89741 2.89198 3.68762 1.84035 3.68762C0.788723 3.68762 0 2.89741 0 1.84381C0 0.790203 0.788723 0 1.84035 0C2.89198 0 3.68071 0.790203 3.68071 1.84381Z" fill="white"/>
<path d="M19.3675 1.84381C19.3675 2.89741 18.5788 3.68762 17.5271 3.68762C16.4755 3.68762 15.6868 2.89741 15.6868 1.84381C15.6868 0.790203 16.4755 0 17.5271 0C18.4911 0 19.3675 0.790203 19.3675 1.84381Z" fill="white"/>
<path d="M34.9664 1.84381C34.9664 2.89741 34.1776 3.68762 33.126 3.68762C32.0744 3.68762 31.2856 2.89741 31.2856 1.84381C31.2856 0.790203 32.162 0 33.126 0C34.1776 0 34.9664 0.790203 34.9664 1.84381Z" fill="white"/>
<path d="M50.6536 1.84381C50.6536 2.89741 49.8649 3.68762 48.8133 3.68762C47.7616 3.68762 46.9729 2.89741 46.9729 1.84381C46.9729 0.790203 47.8493 0 48.8133 0C49.7773 0 50.6536 0.790203 50.6536 1.84381Z" fill="white"/>
<path d="M66.3404 1.84381C66.3404 2.89741 65.5516 3.68762 64.5 3.68762C63.4484 3.68762 62.6597 2.89741 62.6597 1.84381C62.6597 0.790203 63.4484 0 64.5 0C65.464 0 66.3404 0.790203 66.3404 1.84381Z" fill="white"/>
<path d="M82.0271 1.84381C82.0271 2.89741 81.2384 3.68762 80.1868 3.68762C79.1352 3.68762 78.3464 2.89741 78.3464 1.84381C78.3464 0.790203 79.1352 0 80.1868 0C81.2384 0 82.0271 0.790203 82.0271 1.84381Z" fill="white"/>
<path d="M97.626 1.84381C97.626 2.89741 96.8373 3.68762 95.7857 3.68762C94.734 3.68762 93.9453 2.89741 93.9453 1.84381C93.9453 0.790203 94.734 0 95.7857 0C96.8373 0 97.626 0.790203 97.626 1.84381Z" fill="white"/>
<path d="M113.313 1.84381C113.313 2.89741 112.524 3.68762 111.472 3.68762C110.421 3.68762 109.632 2.89741 109.632 1.84381C109.632 0.790203 110.421 0 111.472 0C112.524 0 113.313 0.790203 113.313 1.84381Z" fill="white"/>
<path d="M129 1.84381C129 2.89741 128.211 3.68762 127.16 3.68762C126.108 3.68762 125.319 2.89741 125.319 1.84381C125.319 0.790203 126.108 0 127.16 0C128.124 0 129 0.790203 129 1.84381Z" fill="white"/>
<path d="M3.68071 14.9258C3.68071 15.9794 2.89198 16.7696 1.84035 16.7696C0.788723 16.7696 0 15.8916 0 14.9258C0 13.8722 0.788723 13.082 1.84035 13.082C2.89198 13.082 3.68071 13.8722 3.68071 14.9258Z" fill="white"/>
<path d="M19.3675 14.9258C19.3675 15.9794 18.5788 16.7696 17.5271 16.7696C16.4755 16.7696 15.6868 15.9794 15.6868 14.9258C15.6868 13.8722 16.4755 13.082 17.5271 13.082C18.4911 13.082 19.3675 13.8722 19.3675 14.9258Z" fill="white"/>
<path d="M34.9664 14.9258C34.9664 15.9794 34.1776 16.7696 33.126 16.7696C32.0744 16.7696 31.2856 15.9794 31.2856 14.9258C31.2856 13.8722 32.0744 13.082 33.126 13.082C34.1776 13.082 34.9664 13.8722 34.9664 14.9258Z" fill="white"/>
<path d="M50.6536 14.9258C50.6536 15.9794 49.8649 16.7696 48.8133 16.7696C47.7616 16.7696 46.9729 15.9794 46.9729 14.9258C46.9729 13.8722 47.7616 13.082 48.8133 13.082C49.8649 13.082 50.6536 13.8722 50.6536 14.9258Z" fill="white"/>
<path d="M66.3404 14.9258C66.3404 15.9794 65.5516 16.7696 64.5 16.7696C63.4484 16.7696 62.6597 15.9794 62.6597 14.9258C62.6597 13.8722 63.4484 13.082 64.5 13.082C65.464 13.082 66.3404 13.8722 66.3404 14.9258Z" fill="white"/>
<path d="M82.0271 14.9258C82.0271 15.9794 81.2384 16.7696 80.1868 16.7696C79.1352 16.7696 78.3464 15.9794 78.3464 14.9258C78.3464 13.8722 79.1352 13.082 80.1868 13.082C81.2384 13.082 82.0271 13.8722 82.0271 14.9258Z" fill="white"/>
<path d="M97.626 14.9258C97.626 15.9794 96.8373 16.7696 95.7857 16.7696C94.734 16.7696 93.9453 15.9794 93.9453 14.9258C93.9453 13.8722 94.734 13.082 95.7857 13.082C96.8373 13.082 97.626 13.8722 97.626 14.9258Z" fill="white"/>
<path d="M113.313 14.9258C113.313 15.9794 112.524 16.7696 111.472 16.7696C110.421 16.7696 109.632 15.9794 109.632 14.9258C109.632 13.8722 110.421 13.082 111.472 13.082C112.524 13.082 113.313 13.8722 113.313 14.9258Z" fill="white"/>
<path d="M129 14.9258C129 15.9794 128.211 16.7696 127.16 16.7696C126.108 16.7696 125.319 15.9794 125.319 14.9258C125.319 13.8722 126.108 13.082 127.16 13.082C128.124 13.082 129 13.8722 129 14.9258Z" fill="white"/>
<path d="M3.68071 53.9981C3.68071 55.0517 2.89198 55.8419 1.84035 55.8419C0.788723 55.8419 0 55.0517 0 53.9981C0 52.9445 0.788723 52.1543 1.84035 52.1543C2.89198 52.1543 3.68071 53.0323 3.68071 53.9981Z" fill="white"/>
<path d="M19.3675 53.9981C19.3675 55.0517 18.5788 55.8419 17.5271 55.8419C16.4755 55.8419 15.6868 55.0517 15.6868 53.9981C15.6868 52.9445 16.4755 52.1543 17.5271 52.1543C18.4911 52.1543 19.3675 53.0323 19.3675 53.9981Z" fill="white"/>
<path d="M34.9664 53.9981C34.9664 55.0517 34.1776 55.8419 33.126 55.8419C32.0744 55.8419 31.2856 55.0517 31.2856 53.9981C31.2856 52.9445 32.0744 52.1543 33.126 52.1543C34.1776 52.1543 34.9664 53.0323 34.9664 53.9981Z" fill="white"/>
<path d="M50.6536 53.9981C50.6536 55.0517 49.8649 55.8419 48.8133 55.8419C47.7616 55.8419 46.9729 55.0517 46.9729 53.9981C46.9729 52.9445 47.7616 52.1543 48.8133 52.1543C49.8649 52.1543 50.6536 53.0323 50.6536 53.9981Z" fill="white"/>
<path d="M66.3404 53.9981C66.3404 55.0517 65.5516 55.8419 64.5 55.8419C63.4484 55.8419 62.6597 55.0517 62.6597 53.9981C62.6597 52.9445 63.4484 52.1543 64.5 52.1543C65.464 52.1543 66.3404 53.0323 66.3404 53.9981Z" fill="white"/>
<path d="M82.0271 53.9981C82.0271 55.0517 81.2384 55.8419 80.1868 55.8419C79.1352 55.8419 78.3464 55.0517 78.3464 53.9981C78.3464 52.9445 79.1352 52.1543 80.1868 52.1543C81.2384 52.1543 82.0271 53.0323 82.0271 53.9981Z" fill="white"/>
<path d="M97.626 53.9981C97.626 55.0517 96.8373 55.8419 95.7857 55.8419C94.734 55.8419 93.9453 55.0517 93.9453 53.9981C93.9453 52.9445 94.734 52.1543 95.7857 52.1543C96.8373 52.1543 97.626 53.0323 97.626 53.9981Z" fill="white"/>
<path d="M113.313 53.9981C113.313 55.0517 112.524 55.8419 111.472 55.8419C110.421 55.8419 109.632 55.0517 109.632 53.9981C109.632 52.9445 110.421 52.1543 111.472 52.1543C112.524 52.1543 113.313 53.0323 113.313 53.9981Z" fill="white"/>
<path d="M129 53.9981C129 55.0517 128.211 55.8419 127.16 55.8419C126.108 55.8419 125.319 55.0517 125.319 53.9981C125.319 52.9445 126.108 52.1543 127.16 52.1543C128.124 52.1543 129 53.0323 129 53.9981Z" fill="white"/>
<path d="M3.68071 67.0801C3.68071 68.1337 2.89198 68.9239 1.84035 68.9239C0.788723 68.9239 0 68.1337 0 67.0801C0 66.0265 0.788723 65.2363 1.84035 65.2363C2.89198 65.2363 3.68071 66.0265 3.68071 67.0801Z" fill="white"/>
<path d="M19.3675 67.0801C19.3675 68.1337 18.5788 68.9239 17.5271 68.9239C16.4755 68.9239 15.6868 68.1337 15.6868 67.0801C15.6868 66.0265 16.4755 65.2363 17.5271 65.2363C18.4911 65.2363 19.3675 66.0265 19.3675 67.0801Z" fill="white"/>
<path d="M34.9664 67.0801C34.9664 68.1337 34.1776 68.9239 33.126 68.9239C32.0744 68.9239 31.2856 68.1337 31.2856 67.0801C31.2856 66.0265 32.0744 65.2363 33.126 65.2363C34.1776 65.2363 34.9664 66.0265 34.9664 67.0801Z" fill="white"/>
<path d="M48.8133 68.9239C49.8297 68.9239 50.6536 68.0984 50.6536 67.0801C50.6536 66.0618 49.8297 65.2363 48.8133 65.2363C47.7969 65.2363 46.9729 66.0618 46.9729 67.0801C46.9729 68.0984 47.7969 68.9239 48.8133 68.9239Z" fill="white"/>
<path d="M66.3404 67.0801C66.3404 68.1337 65.5516 68.9239 64.5 68.9239C63.4484 68.9239 62.6597 68.1337 62.6597 67.0801C62.6597 66.0265 63.4484 65.2363 64.5 65.2363C65.464 65.2363 66.3404 66.0265 66.3404 67.0801Z" fill="white"/>
<path d="M82.0271 67.0801C82.0271 68.1337 81.2384 68.9239 80.1868 68.9239C79.1352 68.9239 78.3464 68.1337 78.3464 67.0801C78.3464 66.0265 79.1352 65.2363 80.1868 65.2363C81.2384 65.2363 82.0271 66.0265 82.0271 67.0801Z" fill="white"/>
<path d="M97.626 67.0801C97.626 68.1337 96.8373 68.9239 95.7857 68.9239C94.734 68.9239 93.9453 68.1337 93.9453 67.0801C93.9453 66.0265 94.734 65.2363 95.7857 65.2363C96.8373 65.2363 97.626 66.0265 97.626 67.0801Z" fill="white"/>
<path d="M111.472 68.9239C112.489 68.9239 113.313 68.0984 113.313 67.0801C113.313 66.0618 112.489 65.2363 111.472 65.2363C110.456 65.2363 109.632 66.0618 109.632 67.0801C109.632 68.0984 110.456 68.9239 111.472 68.9239Z" fill="white"/>
<path d="M129 67.0801C129 68.1337 128.211 68.9239 127.16 68.9239C126.108 68.9239 125.319 68.1337 125.319 67.0801C125.319 66.0265 126.108 65.2363 127.16 65.2363C128.124 65.2363 129 66.0265 129 67.0801Z" fill="white"/>
<path d="M3.68071 80.1622C3.68071 81.2158 2.89198 82.006 1.84035 82.006C0.788723 82.006 0 81.2158 0 80.1622C0 79.1086 0.788723 78.3184 1.84035 78.3184C2.89198 78.3184 3.68071 79.1086 3.68071 80.1622Z" fill="white"/>
<path d="M19.3675 80.1622C19.3675 81.2158 18.5788 82.006 17.5271 82.006C16.4755 82.006 15.6868 81.2158 15.6868 80.1622C15.6868 79.1086 16.4755 78.3184 17.5271 78.3184C18.4911 78.3184 19.3675 79.1086 19.3675 80.1622Z" fill="white"/>
<path d="M34.9664 80.1622C34.9664 81.2158 34.1776 82.006 33.126 82.006C32.0744 82.006 31.2856 81.2158 31.2856 80.1622C31.2856 79.1086 32.0744 78.3184 33.126 78.3184C34.1776 78.3184 34.9664 79.1086 34.9664 80.1622Z" fill="white"/>
<path d="M50.6536 80.1622C50.6536 81.2158 49.8649 82.006 48.8133 82.006C47.7616 82.006 46.9729 81.2158 46.9729 80.1622C46.9729 79.1086 47.7616 78.3184 48.8133 78.3184C49.8649 78.3184 50.6536 79.1086 50.6536 80.1622Z" fill="white"/>
<path d="M66.3404 80.1622C66.3404 81.2158 65.5516 82.006 64.5 82.006C63.4484 82.006 62.6597 81.2158 62.6597 80.1622C62.6597 79.1086 63.4484 78.3184 64.5 78.3184C65.464 78.3184 66.3404 79.1086 66.3404 80.1622Z" fill="white"/>
<path d="M82.0271 80.1622C82.0271 81.2158 81.2384 82.006 80.1868 82.006C79.1352 82.006 78.3464 81.2158 78.3464 80.1622C78.3464 79.1086 79.1352 78.3184 80.1868 78.3184C81.2384 78.3184 82.0271 79.1086 82.0271 80.1622Z" fill="white"/>
<path d="M97.626 80.1622C97.626 81.2158 96.8373 82.006 95.7857 82.006C94.734 82.006 93.9453 81.2158 93.9453 80.1622C93.9453 79.1086 94.734 78.3184 95.7857 78.3184C96.8373 78.3184 97.626 79.1086 97.626 80.1622Z" fill="white"/>
<path d="M113.313 80.1622C113.313 81.2158 112.524 82.006 111.472 82.006C110.421 82.006 109.632 81.2158 109.632 80.1622C109.632 79.1086 110.421 78.3184 111.472 78.3184C112.524 78.3184 113.313 79.1086 113.313 80.1622Z" fill="white"/>
<path d="M129 80.1622C129 81.2158 128.211 82.006 127.16 82.006C126.108 82.006 125.319 81.2158 125.319 80.1622C125.319 79.1086 126.108 78.3184 127.16 78.3184C128.124 78.3184 129 79.1086 129 80.1622Z" fill="white"/>
<path d="M3.68071 93.1563C3.68071 94.2099 2.89198 95.0001 1.84035 95.0001C0.788723 95.0001 0 94.2099 0 93.1563C0 92.1027 0.788723 91.3125 1.84035 91.3125C2.89198 91.3125 3.68071 92.1905 3.68071 93.1563Z" fill="white"/>
<path d="M19.3675 93.1563C19.3675 94.2099 18.5788 95.0001 17.5271 95.0001C16.4755 95.0001 15.6868 94.2099 15.6868 93.1563C15.6868 92.1027 16.4755 91.3125 17.5271 91.3125C18.4911 91.3125 19.3675 92.1905 19.3675 93.1563Z" fill="white"/>
<path d="M34.9664 93.1563C34.9664 94.2099 34.1776 95.0001 33.126 95.0001C32.0744 95.0001 31.2856 94.2099 31.2856 93.1563C31.2856 92.1027 32.0744 91.3125 33.126 91.3125C34.1776 91.3125 34.9664 92.1905 34.9664 93.1563Z" fill="white"/>
<path d="M50.6536 93.1563C50.6536 94.2099 49.8649 95.0001 48.8133 95.0001C47.7616 95.0001 46.9729 94.2099 46.9729 93.1563C46.9729 92.1027 47.7616 91.3125 48.8133 91.3125C49.8649 91.3125 50.6536 92.1905 50.6536 93.1563Z" fill="white"/>
<path d="M66.3404 93.1563C66.3404 94.2099 65.5516 95.0001 64.5 95.0001C63.4484 95.0001 62.6597 94.2099 62.6597 93.1563C62.6597 92.1027 63.4484 91.3125 64.5 91.3125C65.464 91.3125 66.3404 92.1905 66.3404 93.1563Z" fill="white"/>
<path d="M82.0271 93.1563C82.0271 94.2099 81.2384 95.0001 80.1868 95.0001C79.1352 95.0001 78.3464 94.2099 78.3464 93.1563C78.3464 92.1027 79.1352 91.3125 80.1868 91.3125C81.2384 91.3125 82.0271 92.1905 82.0271 93.1563Z" fill="white"/>
<path d="M97.626 93.1563C97.626 94.2099 96.8373 95.0001 95.7857 95.0001C94.734 95.0001 93.9453 94.2099 93.9453 93.1563C93.9453 92.1027 94.734 91.3125 95.7857 91.3125C96.8373 91.3125 97.626 92.1905 97.626 93.1563Z" fill="white"/>
<path d="M113.313 93.1563C113.313 94.2099 112.524 95.0001 111.472 95.0001C110.421 95.0001 109.632 94.2099 109.632 93.1563C109.632 92.1027 110.421 91.3125 111.472 91.3125C112.524 91.3125 113.313 92.1905 113.313 93.1563Z" fill="white"/>
<path d="M129 93.1563C129 94.2099 128.211 95.0001 127.16 95.0001C126.108 95.0001 125.319 94.2099 125.319 93.1563C125.319 92.1027 126.108 91.3125 127.16 91.3125C128.124 91.3125 129 92.1905 129 93.1563Z" fill="white"/>
</g>
<defs>
<clipPath id="clip0_2327_2239">
<rect width="129" height="95" fill="white"/>
</clipPath>
</defs>
</svg>
