<svg width="62" height="72" viewBox="0 0 62 72" fill="none" xmlns="http://www.w3.org/2000/svg">
<g opacity="0.8" clip-path="url(#clip0_2396_1704)">
<path d="M59.2038 50.8389C59.2038 50.0404 59.803 49.4415 60.6019 49.4415C61.4008 49.4415 62 50.0404 62 50.8389C62 51.6374 61.4008 52.2363 60.6019 52.2363C59.803 52.2363 59.2038 51.5709 59.2038 50.8389Z" fill="white"/>
<path d="M47.2868 50.8389C47.2868 50.0404 47.886 49.4415 48.6849 49.4415C49.4838 49.4415 50.083 50.0404 50.083 50.8389C50.083 51.6374 49.4838 52.2363 48.6849 52.2363C47.9526 52.2363 47.2868 51.5709 47.2868 50.8389Z" fill="white"/>
<path d="M35.4362 50.8389C35.4362 50.0404 36.0354 49.4415 36.8343 49.4415C37.6332 49.4415 38.2324 50.0404 38.2324 50.8389C38.2324 51.6374 37.6332 52.2363 36.8343 52.2363C36.0354 52.2363 35.4362 51.5709 35.4362 50.8389Z" fill="white"/>
<path d="M23.519 50.8389C23.519 50.0404 24.1182 49.4415 24.9171 49.4415C25.716 49.4415 26.3152 50.0404 26.3152 50.8389C26.3152 51.6374 25.716 52.2363 24.9171 52.2363C24.1182 52.2363 23.519 51.5709 23.519 50.8389Z" fill="white"/>
<path d="M11.602 50.8389C11.602 50.0404 12.2012 49.4415 13.0001 49.4415C13.799 49.4415 14.3982 50.0404 14.3982 50.8389C14.3982 51.6374 13.799 52.2363 13.0001 52.2363C12.2678 52.2363 11.602 51.5709 11.602 50.8389Z" fill="white"/>
<path d="M-0.315472 50.8389C-0.315471 50.0404 0.28371 49.4415 1.08262 49.4415C1.88153 49.4415 2.48071 50.0404 2.48071 50.8389C2.48071 51.6374 1.88153 52.2363 1.08262 52.2363C0.28371 52.2363 -0.315472 51.5709 -0.315472 50.8389Z" fill="white"/>
<path d="M59.2038 40.9249C59.2038 40.1263 59.803 39.5274 60.6019 39.5274C61.4008 39.5274 62 40.1263 62 40.9249C62 41.7234 61.4008 42.3223 60.6019 42.3223C59.803 42.3223 59.2038 41.7234 59.2038 40.9249Z" fill="white"/>
<path d="M47.2868 40.9248C47.2868 40.1263 47.886 39.5274 48.6849 39.5274C49.4838 39.5274 50.083 40.1263 50.083 40.9249C50.083 41.7234 49.4838 42.3223 48.6849 42.3223C47.9526 42.3223 47.2868 41.7234 47.2868 40.9248Z" fill="white"/>
<path d="M35.4362 40.9249C35.4362 40.1263 36.0354 39.5274 36.8343 39.5274C37.6332 39.5274 38.2324 40.1263 38.2324 40.9249C38.2324 41.7234 37.6332 42.3223 36.8343 42.3223C36.0354 42.3223 35.4362 41.7234 35.4362 40.9249Z" fill="white"/>
<path d="M23.519 40.9249C23.519 40.1263 24.1182 39.5274 24.9171 39.5274C25.716 39.5274 26.3152 40.1263 26.3152 40.9249C26.3152 41.7234 25.716 42.3223 24.9171 42.3223C24.1182 42.3223 23.519 41.7234 23.519 40.9249Z" fill="white"/>
<path d="M11.602 40.9249C11.602 40.1263 12.2012 39.5274 13.0001 39.5274C13.799 39.5274 14.3982 40.1263 14.3982 40.9249C14.3982 41.7234 13.799 42.3223 13.0001 42.3223C12.2678 42.3223 11.602 41.7234 11.602 40.9249Z" fill="white"/>
<path d="M-0.315472 40.9249C-0.315471 40.1263 0.28371 39.5274 1.08262 39.5274C1.88153 39.5274 2.48071 40.1263 2.48071 40.9249C2.48071 41.7234 1.88153 42.3223 1.08262 42.3223C0.28371 42.3223 -0.315472 41.7234 -0.315472 40.9249Z" fill="white"/>
<path d="M59.2038 70.6026C59.2038 69.8041 59.803 69.2052 60.6019 69.2052C61.4008 69.2052 62 69.8041 62 70.6026C62 71.4011 61.4008 72 60.6019 72C59.803 72 59.2038 71.4011 59.2038 70.6026Z" fill="white"/>
<path d="M47.2868 70.6026C47.2868 69.8041 47.886 69.2052 48.6849 69.2052C49.4838 69.2052 50.083 69.8041 50.083 70.6026C50.083 71.4011 49.4838 72 48.6849 72C47.9526 72 47.2868 71.4011 47.2868 70.6026Z" fill="white"/>
<path d="M35.4362 70.6026C35.4362 69.8041 36.0354 69.2052 36.8343 69.2052C37.6332 69.2052 38.2324 69.8041 38.2324 70.6026C38.2324 71.4011 37.5667 72 36.8343 72C36.0354 72 35.4362 71.4011 35.4362 70.6026Z" fill="white"/>
<path d="M23.519 70.6026C23.519 69.8041 24.1182 69.2052 24.9171 69.2052C25.716 69.2052 26.3152 69.8041 26.3152 70.6026C26.3152 71.4011 25.6494 72 24.9171 72C24.1848 72 23.519 71.4011 23.519 70.6026Z" fill="white"/>
<path d="M11.602 70.6026C11.602 69.8041 12.2012 69.2052 13.0001 69.2052C13.799 69.2052 14.3982 69.8041 14.3982 70.6026C14.3982 71.4011 13.799 72 13.0001 72C12.2678 72 11.602 71.4011 11.602 70.6026Z" fill="white"/>
<path d="M-0.315475 70.6026C-0.315475 69.8041 0.283707 69.2052 1.08262 69.2052C1.88153 69.2052 2.48071 69.8041 2.48071 70.6026C2.48071 71.4011 1.88153 72 1.08262 72C0.283707 72 -0.315475 71.4011 -0.315475 70.6026Z" fill="white"/>
<path d="M59.2038 60.6885C59.2038 59.89 59.803 59.2911 60.6019 59.2911C61.4008 59.2911 62 59.9565 62 60.6885C62 61.487 61.4008 62.0859 60.6019 62.0859C59.803 62.0859 59.2038 61.487 59.2038 60.6885Z" fill="white"/>
<path d="M47.2868 60.6885C47.2868 59.89 47.886 59.2911 48.6849 59.2911C49.4838 59.2911 50.083 59.89 50.083 60.6885C50.083 61.487 49.4838 62.0859 48.6849 62.0859C47.9526 62.0859 47.2868 61.487 47.2868 60.6885Z" fill="white"/>
<path d="M35.4362 60.6885C35.4362 59.89 36.0354 59.2911 36.8343 59.2911C37.6332 59.2911 38.2324 59.89 38.2324 60.6885C38.2324 61.487 37.6332 62.0859 36.8343 62.0859C36.0354 62.0859 35.4362 61.487 35.4362 60.6885Z" fill="white"/>
<path d="M23.519 60.6885C23.519 59.89 24.1182 59.2911 24.9171 59.2911C25.716 59.2911 26.3152 59.89 26.3152 60.6885C26.3152 61.487 25.716 62.0859 24.9171 62.0859C24.1182 62.0859 23.519 61.487 23.519 60.6885Z" fill="white"/>
<path d="M11.602 60.6885C11.602 59.89 12.2012 59.2911 13.0001 59.2911C13.799 59.2911 14.3982 59.89 14.3982 60.6885C14.3982 61.487 13.799 62.0859 13.0001 62.0859C12.2678 62.0859 11.602 61.487 11.602 60.6885Z" fill="white"/>
<path d="M-0.315472 60.6885C-0.315471 59.89 0.28371 59.2911 1.08262 59.2911C1.88153 59.2911 2.48071 59.89 2.48071 60.6885C2.48071 61.487 1.88153 62.0859 1.08262 62.0859C0.28371 62.0859 -0.315472 61.487 -0.315472 60.6885Z" fill="white"/>
<path d="M59.2038 31.0752C59.2038 30.2767 59.803 29.6778 60.6019 29.6778C61.4008 29.6778 62 30.2767 62 31.0752C62 31.8738 61.4008 32.4727 60.6019 32.4727C59.803 32.4727 59.2038 31.8072 59.2038 31.0752Z" fill="white"/>
<path d="M47.2868 31.0752C47.2868 30.2767 47.886 29.6778 48.6849 29.6778C49.4838 29.6778 50.083 30.2767 50.083 31.0752C50.083 31.8738 49.4838 32.4727 48.6849 32.4727C47.9526 32.4727 47.2868 31.8072 47.2868 31.0752Z" fill="white"/>
<path d="M35.4362 31.0752C35.4362 30.2767 36.0354 29.6778 36.8343 29.6778C37.6332 29.6778 38.2324 30.2767 38.2324 31.0752C38.2324 31.8738 37.6332 32.4727 36.8343 32.4727C36.0354 32.4727 35.4362 31.8072 35.4362 31.0752Z" fill="white"/>
<path d="M23.519 31.0752C23.519 30.2767 24.1182 29.6778 24.9171 29.6778C25.716 29.6778 26.3152 30.2767 26.3152 31.0752C26.3152 31.8738 25.716 32.4727 24.9171 32.4727C24.1182 32.4727 23.519 31.8072 23.519 31.0752Z" fill="white"/>
<path d="M11.602 31.0752C11.602 30.2767 12.2012 29.6778 13.0001 29.6778C13.799 29.6778 14.3982 30.2767 14.3982 31.0752C14.3982 31.8738 13.799 32.4727 13.0001 32.4727C12.2678 32.4727 11.602 31.8072 11.602 31.0752Z" fill="white"/>
<path d="M-0.315472 31.0752C-0.315471 30.2767 0.28371 29.6778 1.08262 29.6778C1.88153 29.6778 2.48071 30.2767 2.48071 31.0752C2.48071 31.8738 1.88153 32.4727 1.08262 32.4727C0.28371 32.4727 -0.315472 31.8072 -0.315472 31.0752Z" fill="white"/>
<path d="M59.2038 21.1612C59.2038 20.3627 59.803 19.7638 60.6019 19.7638C61.4008 19.7638 62 20.3627 62 21.1612C62 21.9597 61.4008 22.5586 60.6019 22.5586C59.803 22.5586 59.2038 21.9597 59.2038 21.1612Z" fill="white"/>
<path d="M47.2868 21.1612C47.2868 20.3627 47.886 19.7638 48.6849 19.7638C49.4838 19.7638 50.083 20.3627 50.083 21.1612C50.083 21.9597 49.4838 22.5586 48.6849 22.5586C47.9526 22.5586 47.2868 21.9597 47.2868 21.1612Z" fill="white"/>
<path d="M35.4362 21.1612C35.4362 20.3627 36.0354 19.7638 36.8343 19.7638C37.6332 19.7638 38.2324 20.3627 38.2324 21.1612C38.2324 21.9597 37.6332 22.5586 36.8343 22.5586C36.0354 22.5586 35.4362 21.9597 35.4362 21.1612Z" fill="white"/>
<path d="M24.9171 19.7638C24.1449 19.7638 23.519 20.3894 23.519 21.1612C23.519 21.933 24.1449 22.5586 24.9171 22.5586C25.6892 22.5586 26.3152 21.933 26.3152 21.1612C26.3152 20.3894 25.6892 19.7638 24.9171 19.7638Z" fill="white"/>
<path d="M11.602 21.1612C11.602 20.3627 12.2012 19.7638 13.0001 19.7638C13.799 19.7638 14.3982 20.3627 14.3982 21.1612C14.3982 21.9597 13.799 22.5586 13.0001 22.5586C12.2678 22.5586 11.602 21.9597 11.602 21.1612Z" fill="white"/>
<path d="M-0.315472 21.1612C-0.315471 20.3627 0.28371 19.7638 1.08262 19.7638C1.88153 19.7638 2.48071 20.3627 2.48071 21.1612C2.48071 21.9597 1.88153 22.5586 1.08262 22.5586C0.28371 22.5586 -0.315472 21.9597 -0.315472 21.1612Z" fill="white"/>
<path d="M59.2038 11.2452C59.2038 10.4467 59.803 9.84777 60.6019 9.84777C61.4008 9.84777 62 10.4467 62 11.2452C62 12.0437 61.4008 12.6426 60.6019 12.6426C59.803 12.6426 59.2038 12.0437 59.2038 11.2452Z" fill="white"/>
<path d="M47.2868 11.2452C47.2868 10.4467 47.886 9.84777 48.6849 9.84777C49.4838 9.84777 50.083 10.4467 50.083 11.2452C50.083 12.0437 49.4838 12.6426 48.6849 12.6426C47.9526 12.6426 47.2868 12.0437 47.2868 11.2452Z" fill="white"/>
<path d="M35.4362 11.2452C35.4362 10.4467 36.0354 9.84777 36.8343 9.84777C37.6332 9.84777 38.2324 10.4467 38.2324 11.2452C38.2324 12.0437 37.6332 12.6426 36.8343 12.6426C36.0354 12.6426 35.4362 12.0437 35.4362 11.2452Z" fill="white"/>
<path d="M23.519 11.2452C23.519 10.4467 24.1182 9.84777 24.9171 9.84777C25.716 9.84777 26.3152 10.4467 26.3152 11.2452C26.3152 12.0437 25.716 12.6426 24.9171 12.6426C24.1182 12.6426 23.519 12.0437 23.519 11.2452Z" fill="white"/>
<path d="M11.602 11.2452C11.602 10.4467 12.2012 9.84777 13.0001 9.84777C13.799 9.84777 14.3982 10.4467 14.3982 11.2452C14.3982 12.0437 13.799 12.6426 13.0001 12.6426C12.2678 12.6426 11.602 12.0437 11.602 11.2452Z" fill="white"/>
<path d="M-0.315472 11.2452C-0.315471 10.4467 0.28371 9.84777 1.08262 9.84777C1.88153 9.84777 2.48071 10.4467 2.48071 11.2452C2.48071 12.0437 1.88153 12.6426 1.08262 12.6426C0.28371 12.6426 -0.315472 12.0437 -0.315472 11.2452Z" fill="white"/>
<path d="M59.2038 1.39751C59.2038 0.598995 59.803 0.000106619 60.6019 0.000106689C61.4008 0.000106759 62 0.598995 62 1.39751C62 2.19603 61.4008 2.79492 60.6019 2.79492C59.803 2.79492 59.2038 2.12949 59.2038 1.39751Z" fill="white"/>
<path d="M47.2868 1.39751C47.2868 0.598995 47.886 0.000106619 48.6849 0.000106689C49.4838 0.000106759 50.083 0.598995 50.083 1.39751C50.083 2.19603 49.4838 2.79492 48.6849 2.79492C47.9526 2.79492 47.2868 2.12949 47.2868 1.39751Z" fill="white"/>
<path d="M35.4362 1.39751C35.4362 0.598995 36.0354 0.000106619 36.8343 0.000106689C37.6332 0.000106759 38.2324 0.598995 38.2324 1.39751C38.2324 2.19603 37.6332 2.79492 36.8343 2.79492C36.0354 2.79492 35.4362 2.12949 35.4362 1.39751Z" fill="white"/>
<path d="M23.519 1.39751C23.519 0.598989 24.1182 9.89901e-05 24.9171 9.90599e-05C25.716 9.91297e-05 26.3152 0.598989 26.3152 1.39751C26.3152 2.19603 25.716 2.79492 24.9171 2.79492C24.1182 2.79492 23.519 2.12949 23.519 1.39751Z" fill="white"/>
<path d="M11.602 1.39751C11.602 0.598989 12.2012 9.89901e-05 13.0001 9.90599e-05C13.799 9.91297e-05 14.3982 0.598989 14.3982 1.39751C14.3982 2.19603 13.799 2.79492 13.0001 2.79492C12.2678 2.79492 11.602 2.12949 11.602 1.39751Z" fill="white"/>
<path d="M-0.315468 1.39751C-0.315468 0.598989 0.283713 9.89901e-05 1.08262 9.90599e-05C1.88153 9.91297e-05 2.48071 0.598989 2.48071 1.39751C2.48071 2.19603 1.88153 2.79492 1.08262 2.79492C0.283713 2.79492 -0.315468 2.12949 -0.315468 1.39751Z" fill="white"/>
</g>
<defs>
<clipPath id="clip0_2396_1704">
<rect width="62" height="72" fill="white" transform="translate(62 72) rotate(-180)"/>
</clipPath>
</defs>
</svg>
