<svg width="187" height="137" viewBox="0 0 187 137" fill="none" xmlns="http://www.w3.org/2000/svg">
<g opacity="0.8" clip-path="url(#clip0_2320_3687)">
<path d="M5.3356 41.2957C5.3356 42.8151 4.19226 43.9546 2.6678 43.9546C1.14334 43.9546 0 42.8151 0 41.2957C0 39.7763 1.14334 38.6367 2.6678 38.6367C4.19226 38.6367 5.3356 39.9029 5.3356 41.2957Z" fill="white"/>
<path d="M28.0755 41.2957C28.0755 42.8151 26.9321 43.9546 25.4077 43.9546C23.8832 43.9546 22.7399 42.8151 22.7399 41.2957C22.7399 39.7763 23.8832 38.6367 25.4077 38.6367C26.8051 38.6367 28.0755 39.9029 28.0755 41.2957Z" fill="white"/>
<path d="M50.688 41.2957C50.688 42.8151 49.5447 43.9546 48.0202 43.9546C46.4958 43.9546 45.3524 42.8151 45.3524 41.2957C45.3524 39.7763 46.4958 38.6367 48.0202 38.6367C49.5447 38.6367 50.688 39.9029 50.688 41.2957Z" fill="white"/>
<path d="M73.4279 41.2957C73.4279 42.8151 72.2845 43.9546 70.7601 43.9546C69.2356 43.9546 68.0923 42.8151 68.0923 41.2957C68.0923 39.7763 69.2356 38.6367 70.7601 38.6367C72.2845 38.6367 73.4279 39.9029 73.4279 41.2957Z" fill="white"/>
<path d="M96.1677 41.2957C96.1677 42.8151 95.0244 43.9546 93.5 43.9546C91.9755 43.9546 90.8322 42.8151 90.8322 41.2957C90.8322 39.7763 91.9755 38.6367 93.5 38.6367C94.8974 38.6367 96.1677 39.9029 96.1677 41.2957Z" fill="white"/>
<path d="M118.908 41.2957C118.908 42.8151 117.764 43.9546 116.24 43.9546C114.715 43.9546 113.572 42.8151 113.572 41.2957C113.572 39.7763 114.715 38.6367 116.24 38.6367C117.764 38.6367 118.908 39.9029 118.908 41.2957Z" fill="white"/>
<path d="M141.52 41.2957C141.52 42.8151 140.377 43.9546 138.852 43.9546C137.328 43.9546 136.185 42.8151 136.185 41.2957C136.185 39.7763 137.328 38.6367 138.852 38.6367C140.377 38.6367 141.52 39.9029 141.52 41.2957Z" fill="white"/>
<path d="M164.26 41.2957C164.26 42.8151 163.117 43.9546 161.592 43.9546C160.068 43.9546 158.925 42.8151 158.925 41.2957C158.925 39.7763 160.068 38.6367 161.592 38.6367C163.117 38.6367 164.26 39.9029 164.26 41.2957Z" fill="white"/>
<path d="M187 41.2957C187 42.8151 185.857 43.9546 184.332 43.9546C182.808 43.9546 181.664 42.8151 181.664 41.2957C181.664 39.7763 182.808 38.6367 184.332 38.6367C185.73 38.6367 187 39.9029 187 41.2957Z" fill="white"/>
<path d="M5.3356 60.614C5.3356 62.1335 4.19226 63.273 2.6678 63.273C1.14334 63.273 0 62.1335 0 60.614C0 59.0946 1.14334 57.9551 2.6678 57.9551C4.19226 57.9551 5.3356 59.0946 5.3356 60.614Z" fill="white"/>
<path d="M28.0755 60.614C28.0755 62.1335 26.9321 63.273 25.4077 63.273C23.8832 63.273 22.7399 62.1335 22.7399 60.614C22.7399 59.0946 23.8832 57.9551 25.4077 57.9551C26.8051 57.9551 28.0755 59.0946 28.0755 60.614Z" fill="white"/>
<path d="M50.688 60.614C50.688 62.1335 49.5447 63.273 48.0202 63.273C46.4958 63.273 45.3524 62.1335 45.3524 60.614C45.3524 59.0946 46.4958 57.9551 48.0202 57.9551C49.5447 57.9551 50.688 59.0946 50.688 60.614Z" fill="white"/>
<path d="M73.4279 60.614C73.4279 62.1335 72.2845 63.273 70.7601 63.273C69.2356 63.273 68.0923 62.1335 68.0923 60.614C68.0923 59.0946 69.2356 57.9551 70.7601 57.9551C72.2845 57.9551 73.4279 59.0946 73.4279 60.614Z" fill="white"/>
<path d="M96.1677 60.614C96.1677 62.1335 95.0244 63.273 93.5 63.273C91.9755 63.273 90.8322 62.1335 90.8322 60.614C90.8322 59.0946 91.9755 57.9551 93.5 57.9551C94.8974 57.9551 96.1677 59.0946 96.1677 60.614Z" fill="white"/>
<path d="M118.908 60.614C118.908 62.1335 117.764 63.273 116.24 63.273C114.715 63.273 113.572 62.1335 113.572 60.614C113.572 59.0946 114.715 57.9551 116.24 57.9551C117.764 57.9551 118.908 59.0946 118.908 60.614Z" fill="white"/>
<path d="M141.52 60.614C141.52 62.1335 140.377 63.273 138.852 63.273C137.328 63.273 136.185 62.1335 136.185 60.614C136.185 59.0946 137.328 57.9551 138.852 57.9551C140.377 57.9551 141.52 59.0946 141.52 60.614Z" fill="white"/>
<path d="M164.26 60.614C164.26 62.1335 163.117 63.273 161.592 63.273C160.068 63.273 158.925 62.1335 158.925 60.614C158.925 59.0946 160.068 57.9551 161.592 57.9551C163.117 57.9551 164.26 59.0946 164.26 60.614Z" fill="white"/>
<path d="M187 60.614C187 62.1335 185.857 63.273 184.332 63.273C182.808 63.273 181.664 62.1335 181.664 60.614C181.664 59.0946 182.808 57.9551 184.332 57.9551C185.73 57.9551 187 59.0946 187 60.614Z" fill="white"/>
<path d="M5.3356 2.65896C5.3356 4.17837 4.19226 5.31793 2.6678 5.31793C1.14334 5.31793 0 4.17837 0 2.65896C0 1.13956 1.14334 0 2.6678 0C4.19226 0 5.3356 1.13956 5.3356 2.65896Z" fill="white"/>
<path d="M28.0755 2.65896C28.0755 4.17837 26.9321 5.31793 25.4077 5.31793C23.8832 5.31793 22.7399 4.17837 22.7399 2.65896C22.7399 1.13956 23.8832 0 25.4077 0C26.8051 0 28.0755 1.13956 28.0755 2.65896Z" fill="white"/>
<path d="M50.688 2.65896C50.688 4.17837 49.5447 5.31793 48.0202 5.31793C46.4958 5.31793 45.3524 4.17837 45.3524 2.65896C45.3524 1.13956 46.6228 0 48.0202 0C49.5447 0 50.688 1.13956 50.688 2.65896Z" fill="white"/>
<path d="M73.4279 2.65896C73.4279 4.17837 72.2845 5.31793 70.7601 5.31793C69.2356 5.31793 68.0923 4.17837 68.0923 2.65896C68.0923 1.13956 69.3627 0 70.7601 0C72.1575 0 73.4279 1.13956 73.4279 2.65896Z" fill="white"/>
<path d="M96.1677 2.65896C96.1677 4.17837 95.0244 5.31793 93.5 5.31793C91.9755 5.31793 90.8322 4.17837 90.8322 2.65896C90.8322 1.13956 91.9755 0 93.5 0C94.8974 0 96.1677 1.13956 96.1677 2.65896Z" fill="white"/>
<path d="M118.908 2.65896C118.908 4.17837 117.764 5.31793 116.24 5.31793C114.715 5.31793 113.572 4.17837 113.572 2.65896C113.572 1.13956 114.715 0 116.24 0C117.764 0 118.908 1.13956 118.908 2.65896Z" fill="white"/>
<path d="M141.52 2.65896C141.52 4.17837 140.377 5.31793 138.852 5.31793C137.328 5.31793 136.185 4.17837 136.185 2.65896C136.185 1.13956 137.328 0 138.852 0C140.377 0 141.52 1.13956 141.52 2.65896Z" fill="white"/>
<path d="M164.26 2.65896C164.26 4.17837 163.117 5.31793 161.592 5.31793C160.068 5.31793 158.925 4.17837 158.925 2.65896C158.925 1.13956 160.068 0 161.592 0C163.117 0 164.26 1.13956 164.26 2.65896Z" fill="white"/>
<path d="M187 2.65896C187 4.17837 185.857 5.31793 184.332 5.31793C182.808 5.31793 181.664 4.17837 181.664 2.65896C181.664 1.13956 182.808 0 184.332 0C185.73 0 187 1.13956 187 2.65896Z" fill="white"/>
<path d="M5.3356 21.9773C5.3356 23.4967 4.19226 24.6363 2.6678 24.6363C1.14334 24.6363 0 23.3701 0 21.9773C0 20.4579 1.14334 19.3184 2.6678 19.3184C4.19226 19.3184 5.3356 20.4579 5.3356 21.9773Z" fill="white"/>
<path d="M28.0755 21.9773C28.0755 23.4967 26.9321 24.6363 25.4077 24.6363C23.8832 24.6363 22.7399 23.4967 22.7399 21.9773C22.7399 20.4579 23.8832 19.3184 25.4077 19.3184C26.8051 19.3184 28.0755 20.4579 28.0755 21.9773Z" fill="white"/>
<path d="M50.688 21.9773C50.688 23.4967 49.5447 24.6363 48.0202 24.6363C46.4958 24.6363 45.3524 23.4967 45.3524 21.9773C45.3524 20.4579 46.4958 19.3184 48.0202 19.3184C49.5447 19.3184 50.688 20.4579 50.688 21.9773Z" fill="white"/>
<path d="M73.4279 21.9773C73.4279 23.4967 72.2845 24.6363 70.7601 24.6363C69.2356 24.6363 68.0923 23.4967 68.0923 21.9773C68.0923 20.4579 69.2356 19.3184 70.7601 19.3184C72.2845 19.3184 73.4279 20.4579 73.4279 21.9773Z" fill="white"/>
<path d="M96.1677 21.9773C96.1677 23.4967 95.0244 24.6363 93.5 24.6363C91.9755 24.6363 90.8322 23.4967 90.8322 21.9773C90.8322 20.4579 91.9755 19.3184 93.5 19.3184C94.8974 19.3184 96.1677 20.4579 96.1677 21.9773Z" fill="white"/>
<path d="M118.908 21.9773C118.908 23.4967 117.764 24.6363 116.24 24.6363C114.715 24.6363 113.572 23.4967 113.572 21.9773C113.572 20.4579 114.715 19.3184 116.24 19.3184C117.764 19.3184 118.908 20.4579 118.908 21.9773Z" fill="white"/>
<path d="M141.52 21.9773C141.52 23.4967 140.377 24.6363 138.852 24.6363C137.328 24.6363 136.185 23.4967 136.185 21.9773C136.185 20.4579 137.328 19.3184 138.852 19.3184C140.377 19.3184 141.52 20.4579 141.52 21.9773Z" fill="white"/>
<path d="M164.26 21.9773C164.26 23.4967 163.117 24.6363 161.592 24.6363C160.068 24.6363 158.925 23.4967 158.925 21.9773C158.925 20.4579 160.068 19.3184 161.592 19.3184C163.117 19.3184 164.26 20.4579 164.26 21.9773Z" fill="white"/>
<path d="M187 21.9773C187 23.4967 185.857 24.6363 184.332 24.6363C182.808 24.6363 181.664 23.4967 181.664 21.9773C181.664 20.4579 182.808 19.3184 184.332 19.3184C185.73 19.3184 187 20.4579 187 21.9773Z" fill="white"/>
<path d="M5.3356 79.9324C5.3356 81.4518 4.19226 82.5914 2.6678 82.5914C1.14334 82.5914 0 81.4518 0 79.9324C0 78.413 1.14334 77.2734 2.6678 77.2734C4.19226 77.2734 5.3356 78.5396 5.3356 79.9324Z" fill="white"/>
<path d="M28.0755 79.9324C28.0755 81.4518 26.9321 82.5914 25.4077 82.5914C23.8832 82.5914 22.7399 81.4518 22.7399 79.9324C22.7399 78.413 23.8832 77.2734 25.4077 77.2734C26.8051 77.2734 28.0755 78.5396 28.0755 79.9324Z" fill="white"/>
<path d="M50.688 79.9324C50.688 81.4518 49.5447 82.5914 48.0202 82.5914C46.4958 82.5914 45.3524 81.4518 45.3524 79.9324C45.3524 78.413 46.4958 77.2734 48.0202 77.2734C49.5447 77.2734 50.688 78.5396 50.688 79.9324Z" fill="white"/>
<path d="M73.4279 79.9324C73.4279 81.4518 72.2845 82.5914 70.7601 82.5914C69.2356 82.5914 68.0923 81.4518 68.0923 79.9324C68.0923 78.413 69.2356 77.2734 70.7601 77.2734C72.2845 77.2734 73.4279 78.5396 73.4279 79.9324Z" fill="white"/>
<path d="M96.1677 79.9324C96.1677 81.4518 95.0244 82.5914 93.5 82.5914C91.9755 82.5914 90.8322 81.4518 90.8322 79.9324C90.8322 78.413 91.9755 77.2734 93.5 77.2734C94.8974 77.2734 96.1677 78.5396 96.1677 79.9324Z" fill="white"/>
<path d="M118.908 79.9324C118.908 81.4518 117.764 82.5914 116.24 82.5914C114.715 82.5914 113.572 81.4518 113.572 79.9324C113.572 78.413 114.715 77.2734 116.24 77.2734C117.764 77.2734 118.908 78.5396 118.908 79.9324Z" fill="white"/>
<path d="M141.52 79.9324C141.52 81.4518 140.377 82.5914 138.852 82.5914C137.328 82.5914 136.185 81.4518 136.185 79.9324C136.185 78.413 137.328 77.2734 138.852 77.2734C140.377 77.2734 141.52 78.5396 141.52 79.9324Z" fill="white"/>
<path d="M164.26 79.9324C164.26 81.4518 163.117 82.5914 161.592 82.5914C160.068 82.5914 158.925 81.4518 158.925 79.9324C158.925 78.413 160.068 77.2734 161.592 77.2734C163.117 77.2734 164.26 78.5396 164.26 79.9324Z" fill="white"/>
<path d="M187 79.9324C187 81.4518 185.857 82.5914 184.332 82.5914C182.808 82.5914 181.664 81.4518 181.664 79.9324C181.664 78.413 182.808 77.2734 184.332 77.2734C185.73 77.2734 187 78.5396 187 79.9324Z" fill="white"/>
<path d="M5.3356 99.2508C5.3356 100.77 4.19226 101.91 2.6678 101.91C1.14334 101.91 0 100.77 0 99.2508C0 97.7313 1.14334 96.5918 2.6678 96.5918C4.19226 96.5918 5.3356 97.7313 5.3356 99.2508Z" fill="white"/>
<path d="M28.0755 99.2508C28.0755 100.77 26.9321 101.91 25.4077 101.91C23.8832 101.91 22.7399 100.77 22.7399 99.2508C22.7399 97.7313 23.8832 96.5918 25.4077 96.5918C26.8051 96.5918 28.0755 97.7313 28.0755 99.2508Z" fill="white"/>
<path d="M50.688 99.2508C50.688 100.77 49.5447 101.91 48.0202 101.91C46.4958 101.91 45.3524 100.77 45.3524 99.2508C45.3524 97.7313 46.4958 96.5918 48.0202 96.5918C49.5447 96.5918 50.688 97.7313 50.688 99.2508Z" fill="white"/>
<path d="M70.7601 101.91C72.2335 101.91 73.4279 100.719 73.4279 99.2508C73.4279 97.7823 72.2335 96.5918 70.7601 96.5918C69.2867 96.5918 68.0923 97.7823 68.0923 99.2508C68.0923 100.719 69.2867 101.91 70.7601 101.91Z" fill="white"/>
<path d="M96.1677 99.2508C96.1677 100.77 95.0244 101.91 93.5 101.91C91.9755 101.91 90.8322 100.77 90.8322 99.2508C90.8322 97.7313 91.9755 96.5918 93.5 96.5918C94.8974 96.5918 96.1677 97.7313 96.1677 99.2508Z" fill="white"/>
<path d="M118.908 99.2508C118.908 100.77 117.764 101.91 116.24 101.91C114.715 101.91 113.572 100.77 113.572 99.2508C113.572 97.7313 114.715 96.5918 116.24 96.5918C117.764 96.5918 118.908 97.7313 118.908 99.2508Z" fill="white"/>
<path d="M141.52 99.2508C141.52 100.77 140.377 101.91 138.852 101.91C137.328 101.91 136.185 100.77 136.185 99.2508C136.185 97.7313 137.328 96.5918 138.852 96.5918C140.377 96.5918 141.52 97.7313 141.52 99.2508Z" fill="white"/>
<path d="M161.592 101.91C163.066 101.91 164.26 100.719 164.26 99.2508C164.26 97.7823 163.066 96.5918 161.592 96.5918C160.119 96.5918 158.925 97.7823 158.925 99.2508C158.925 100.719 160.119 101.91 161.592 101.91Z" fill="white"/>
<path d="M187 99.2508C187 100.77 185.857 101.91 184.332 101.91C182.808 101.91 181.664 100.77 181.664 99.2508C181.664 97.7313 182.808 96.5918 184.332 96.5918C185.73 96.5918 187 97.7313 187 99.2508Z" fill="white"/>
<path d="M5.3356 118.569C5.3356 120.089 4.19226 121.228 2.6678 121.228C1.14334 121.228 0 120.089 0 118.569C0 117.05 1.14334 115.91 2.6678 115.91C4.19226 115.91 5.3356 117.05 5.3356 118.569Z" fill="white"/>
<path d="M28.0755 118.569C28.0755 120.089 26.9321 121.228 25.4077 121.228C23.8832 121.228 22.7399 120.089 22.7399 118.569C22.7399 117.05 23.8832 115.91 25.4077 115.91C26.8051 115.91 28.0755 117.05 28.0755 118.569Z" fill="white"/>
<path d="M50.688 118.569C50.688 120.089 49.5447 121.228 48.0202 121.228C46.4958 121.228 45.3524 120.089 45.3524 118.569C45.3524 117.05 46.4958 115.91 48.0202 115.91C49.5447 115.91 50.688 117.05 50.688 118.569Z" fill="white"/>
<path d="M73.4279 118.569C73.4279 120.089 72.2845 121.228 70.7601 121.228C69.2356 121.228 68.0923 120.089 68.0923 118.569C68.0923 117.05 69.2356 115.91 70.7601 115.91C72.2845 115.91 73.4279 117.05 73.4279 118.569Z" fill="white"/>
<path d="M96.1677 118.569C96.1677 120.089 95.0244 121.228 93.5 121.228C91.9755 121.228 90.8322 120.089 90.8322 118.569C90.8322 117.05 91.9755 115.91 93.5 115.91C94.8974 115.91 96.1677 117.05 96.1677 118.569Z" fill="white"/>
<path d="M118.908 118.569C118.908 120.089 117.764 121.228 116.24 121.228C114.715 121.228 113.572 120.089 113.572 118.569C113.572 117.05 114.715 115.91 116.24 115.91C117.764 115.91 118.908 117.05 118.908 118.569Z" fill="white"/>
<path d="M141.52 118.569C141.52 120.089 140.377 121.228 138.852 121.228C137.328 121.228 136.185 120.089 136.185 118.569C136.185 117.05 137.328 115.91 138.852 115.91C140.377 115.91 141.52 117.05 141.52 118.569Z" fill="white"/>
<path d="M164.26 118.569C164.26 120.089 163.117 121.228 161.592 121.228C160.068 121.228 158.925 120.089 158.925 118.569C158.925 117.05 160.068 115.91 161.592 115.91C163.117 115.91 164.26 117.05 164.26 118.569Z" fill="white"/>
<path d="M187 118.569C187 120.089 185.857 121.228 184.332 121.228C182.808 121.228 181.664 120.089 181.664 118.569C181.664 117.05 182.808 115.91 184.332 115.91C185.73 115.91 187 117.05 187 118.569Z" fill="white"/>
<path d="M5.3356 137.887C5.3356 139.407 4.19226 140.546 2.6678 140.546C1.14334 140.546 0 139.407 0 137.887C0 136.368 1.14334 135.229 2.6678 135.229C4.19226 135.229 5.3356 136.495 5.3356 137.887Z" fill="white"/>
<path d="M28.0755 137.887C28.0755 139.407 26.9321 140.546 25.4077 140.546C23.8832 140.546 22.7399 139.407 22.7399 137.887C22.7399 136.368 23.8832 135.229 25.4077 135.229C26.8051 135.229 28.0755 136.495 28.0755 137.887Z" fill="white"/>
<path d="M50.688 137.887C50.688 139.407 49.5447 140.546 48.0202 140.546C46.4958 140.546 45.3524 139.407 45.3524 137.887C45.3524 136.368 46.4958 135.229 48.0202 135.229C49.5447 135.229 50.688 136.495 50.688 137.887Z" fill="white"/>
<path d="M73.4279 137.887C73.4279 139.407 72.2845 140.546 70.7601 140.546C69.2356 140.546 68.0923 139.407 68.0923 137.887C68.0923 136.368 69.2356 135.229 70.7601 135.229C72.2845 135.229 73.4279 136.495 73.4279 137.887Z" fill="white"/>
<path d="M96.1677 137.887C96.1677 139.407 95.0244 140.546 93.5 140.546C91.9755 140.546 90.8322 139.407 90.8322 137.887C90.8322 136.368 91.9755 135.229 93.5 135.229C94.8974 135.229 96.1677 136.495 96.1677 137.887Z" fill="white"/>
<path d="M118.908 137.887C118.908 139.407 117.764 140.546 116.24 140.546C114.715 140.546 113.572 139.407 113.572 137.887C113.572 136.368 114.715 135.229 116.24 135.229C117.764 135.229 118.908 136.495 118.908 137.887Z" fill="white"/>
<path d="M141.52 137.887C141.52 139.407 140.377 140.546 138.852 140.546C137.328 140.546 136.185 139.407 136.185 137.887C136.185 136.368 137.328 135.229 138.852 135.229C140.377 135.229 141.52 136.495 141.52 137.887Z" fill="white"/>
<path d="M164.26 137.887C164.26 139.407 163.117 140.546 161.592 140.546C160.068 140.546 158.925 139.407 158.925 137.887C158.925 136.368 160.068 135.229 161.592 135.229C163.117 135.229 164.26 136.495 164.26 137.887Z" fill="white"/>
<path d="M187 137.887C187 139.407 185.857 140.546 184.332 140.546C182.808 140.546 181.664 139.407 181.664 137.887C181.664 136.368 182.808 135.229 184.332 135.229C185.73 135.229 187 136.495 187 137.887Z" fill="white"/>
</g>
<defs>
<clipPath id="clip0_2320_3687">
<rect width="187" height="137" fill="white"/>
</clipPath>
</defs>
</svg>
