<svg width="110" height="110" viewBox="0 0 110 110" fill="none" xmlns="http://www.w3.org/2000/svg">
<g opacity="0.3">
<path d="M96.341 36.3218L110.001 36.3218L110.001 1.75665e-06L73.6787 0L73.6787 13.556L96.341 13.556L96.341 36.3218Z" fill="white"/>
<path d="M71.8159 60.8452L85.3719 60.8452L85.3719 24.5234L49.1536 24.5234L49.1536 38.1829L71.8159 38.1829L71.8159 60.8452Z" fill="white"/>
<path d="M47.1875 85.3716L60.847 85.3716L60.847 49.1533L24.5251 49.1533L24.5251 62.7093L47.1875 62.7093L47.1875 85.3716Z" fill="white"/>
<path d="M22.6623 110L36.3218 110L36.3218 73.6777L0 73.6777L-5.39643e-07 87.3372L22.6623 87.3372L22.6623 110Z" fill="white"/>
</g>
</svg>
